<svg xmlns="http://www.w3.org/2000/svg" xmlns:xlink="http://www.w3.org/1999/xlink" width="500" zoomAndPan="magnify" viewBox="0 0 375 187.499995" height="250" preserveAspectRatio="xMidYMid meet" version="1.0"><defs><g/><clipPath id="fbdb93473f"><path d="M 103 37 L 171 37 L 171 84 L 103 84 Z M 103 37 " clip-rule="nonzero"/></clipPath><clipPath id="e210e5db7b"><path d="M 131 7.65625 L 158 7.65625 L 158 40 L 131 40 Z M 131 7.65625 " clip-rule="nonzero"/></clipPath></defs><g fill="#2d60ff" fill-opacity="1"><g transform="translate(38.658142, 148.58936)"><g><path d="M 2.40625 0 C 2.9375 -0.476562 3.347656 -1.398438 3.640625 -2.765625 C 3.941406 -4.128906 4.144531 -5.707031 4.25 -7.5 C 4.351562 -9.289062 4.429688 -11.117188 4.484375 -12.984375 C 4.535156 -14.859375 4.546875 -16.566406 4.515625 -18.109375 C 4.492188 -19.660156 4.484375 -20.863281 4.484375 -21.71875 L 4.484375 -61.796875 C 4.484375 -62.648438 4.492188 -63.851562 4.515625 -65.40625 C 4.546875 -66.957031 4.535156 -68.664062 4.484375 -70.53125 C 4.429688 -72.40625 4.351562 -74.238281 4.25 -76.03125 C 4.144531 -77.820312 3.941406 -79.394531 3.640625 -80.75 C 3.347656 -82.113281 2.9375 -83.035156 2.40625 -83.515625 L 19.875 -83.515625 L 29.65625 -28.21875 L 39.359375 -83.515625 L 56.828125 -83.515625 C 56.347656 -83.035156 55.960938 -82.113281 55.671875 -80.75 C 55.378906 -79.394531 55.164062 -77.820312 55.03125 -76.03125 C 54.894531 -74.238281 54.8125 -72.40625 54.78125 -70.53125 C 54.757812 -68.664062 54.75 -66.957031 54.75 -65.40625 C 54.75 -63.851562 54.75 -62.648438 54.75 -61.796875 L 54.75 -21.71875 C 54.75 -20.863281 54.75 -19.660156 54.75 -18.109375 C 54.75 -16.566406 54.757812 -14.859375 54.78125 -12.984375 C 54.8125 -11.117188 54.894531 -9.289062 55.03125 -7.5 C 55.164062 -5.707031 55.378906 -4.128906 55.671875 -2.765625 C 55.960938 -1.398438 56.347656 -0.476562 56.828125 0 L 39.28125 0.078125 C 39.8125 -0.398438 40.222656 -1.320312 40.515625 -2.6875 C 40.804688 -4.050781 41.003906 -5.625 41.109375 -7.40625 C 41.222656 -9.195312 41.304688 -11.023438 41.359375 -12.890625 C 41.410156 -14.765625 41.421875 -16.476562 41.390625 -18.03125 C 41.367188 -19.582031 41.359375 -20.785156 41.359375 -21.640625 L 41.359375 -52.265625 L 33.828125 -6.96875 L 25.484375 -6.96875 L 17.875 -52.265625 L 17.875 -21.640625 C 17.875 -20.785156 17.875 -19.582031 17.875 -18.03125 C 17.875 -16.476562 17.882812 -14.765625 17.90625 -12.890625 C 17.9375 -11.023438 18.019531 -9.195312 18.15625 -7.40625 C 18.289062 -5.625 18.503906 -4.050781 18.796875 -2.6875 C 19.085938 -1.320312 19.472656 -0.398438 19.953125 0.078125 Z M 2.40625 0 "/></g></g></g><g fill="#2d60ff" fill-opacity="1"><g transform="translate(97.888141, 148.58936)"><g><path d="M 2.8125 -43.609375 C 2.8125 -49.640625 4.382812 -54.03125 7.53125 -56.78125 C 10.6875 -59.539062 14.859375 -60.921875 20.046875 -60.921875 C 25.273438 -60.921875 29.476562 -59.539062 32.65625 -56.78125 C 35.84375 -54.03125 37.4375 -49.640625 37.4375 -43.609375 L 37.4375 -37.515625 C 37.4375 -35.210938 37.4375 -33.046875 37.4375 -31.015625 C 37.4375 -28.984375 37.421875 -27.335938 37.390625 -26.078125 C 37.367188 -24.828125 37.359375 -24.203125 37.359375 -24.203125 L 16.03125 -24.203125 C 16.03125 -23.515625 16.039062 -22.632812 16.0625 -21.5625 C 16.09375 -20.488281 16.109375 -19.429688 16.109375 -18.390625 C 16.109375 -17.347656 16.109375 -16.5625 16.109375 -16.03125 C 16.160156 -14.15625 16.75 -12.789062 17.875 -11.9375 C 19 -11.082031 20.414062 -10.65625 22.125 -10.65625 C 23.507812 -10.65625 24.550781 -10.972656 25.25 -11.609375 C 25.945312 -12.253906 26.347656 -12.976562 26.453125 -13.78125 C 26.554688 -14.582031 26.429688 -15.300781 26.078125 -15.9375 C 25.734375 -16.582031 25.191406 -16.90625 24.453125 -16.90625 C 24.453125 -18.03125 25.066406 -18.992188 26.296875 -19.796875 C 27.523438 -20.597656 28.882812 -21 30.375 -21 C 31.65625 -21 32.910156 -20.71875 34.140625 -20.15625 C 35.367188 -19.59375 36.394531 -18.65625 37.21875 -17.34375 C 38.050781 -16.039062 38.46875 -14.210938 38.46875 -11.859375 C 38.46875 -8.285156 37.035156 -5.28125 34.171875 -2.84375 C 31.316406 -0.414062 27.113281 0.796875 21.5625 0.796875 C 18.09375 0.796875 14.941406 0.195312 12.109375 -1 C 9.273438 -2.207031 7.015625 -4.09375 5.328125 -6.65625 C 3.648438 -9.21875 2.8125 -12.503906 2.8125 -16.515625 Z M 16.1875 -44.09375 L 16.1875 -35.59375 L 24.203125 -35.59375 L 24.203125 -44.09375 C 24.203125 -45.957031 23.785156 -47.300781 22.953125 -48.125 C 22.128906 -48.957031 21.210938 -49.375 20.203125 -49.375 C 19.179688 -49.375 18.253906 -48.957031 17.421875 -48.125 C 16.597656 -47.300781 16.1875 -45.957031 16.1875 -44.09375 Z M 16.1875 -44.09375 "/></g></g></g><g fill="#2d60ff" fill-opacity="1"><g transform="translate(138.764064, 148.58936)"><g><path d="M 18.59375 0.796875 C 14.800781 0.796875 11.632812 0.128906 9.09375 -1.203125 C 6.5625 -2.535156 4.679688 -4.269531 3.453125 -6.40625 C 2.222656 -8.550781 1.609375 -10.851562 1.609375 -13.3125 C 1.609375 -16.300781 2.40625 -18.8125 4 -20.84375 C 5.601562 -22.875 8.035156 -23.890625 11.296875 -23.890625 C 13.066406 -23.890625 14.40625 -23.550781 15.3125 -22.875 C 16.21875 -22.207031 16.832031 -21.488281 17.15625 -20.71875 C 17.476562 -19.945312 17.640625 -19.347656 17.640625 -18.921875 C 16.617188 -18.921875 15.75 -18.554688 15.03125 -17.828125 C 14.3125 -17.109375 13.953125 -16.132812 13.953125 -14.90625 C 13.953125 -13.675781 14.390625 -12.660156 15.265625 -11.859375 C 16.148438 -11.054688 17.207031 -10.65625 18.4375 -10.65625 C 19.875 -10.65625 21.035156 -11.203125 21.921875 -12.296875 C 22.804688 -13.398438 23.25 -14.992188 23.25 -17.078125 C 23.25 -18.941406 22.738281 -20.625 21.71875 -22.125 C 20.707031 -23.625 19.410156 -25.015625 17.828125 -26.296875 C 16.253906 -27.578125 14.570312 -28.867188 12.78125 -30.171875 C 10.988281 -31.484375 9.304688 -32.882812 7.734375 -34.375 C 6.160156 -35.875 4.863281 -37.570312 3.84375 -39.46875 C 2.832031 -41.375 2.328125 -43.582031 2.328125 -46.09375 C 2.328125 -48.707031 2.941406 -51.132812 4.171875 -53.375 C 5.398438 -55.625 7.148438 -57.441406 9.421875 -58.828125 C 11.691406 -60.222656 14.398438 -60.921875 17.546875 -60.921875 C 19.472656 -60.921875 21.09375 -60.863281 22.40625 -60.75 C 23.71875 -60.644531 25.09375 -60.578125 26.53125 -60.546875 C 27.976562 -60.523438 29.796875 -60.625 31.984375 -60.84375 L 31.984375 -46.96875 C 30.160156 -48.039062 28.3125 -48.828125 26.4375 -49.328125 C 24.570312 -49.835938 22.679688 -50.09375 20.765625 -50.09375 C 19.535156 -50.09375 18.367188 -49.8125 17.265625 -49.25 C 16.171875 -48.695312 15.597656 -47.671875 15.546875 -46.171875 C 15.492188 -44.835938 15.945312 -43.566406 16.90625 -42.359375 C 17.875 -41.160156 19.117188 -39.945312 20.640625 -38.71875 C 22.160156 -37.488281 23.789062 -36.164062 25.53125 -34.75 C 27.269531 -33.332031 28.898438 -31.726562 30.421875 -29.9375 C 31.941406 -28.144531 33.195312 -26.085938 34.1875 -23.765625 C 35.175781 -21.441406 35.671875 -18.753906 35.671875 -15.703125 C 35.671875 -12.179688 34.878906 -9.191406 33.296875 -6.734375 C 31.722656 -4.273438 29.640625 -2.40625 27.046875 -1.125 C 24.460938 0.15625 21.644531 0.796875 18.59375 0.796875 Z M 18.59375 0.796875 "/></g></g></g><g fill="#2d60ff" fill-opacity="1"><g transform="translate(174.430308, 148.58936)"><g><path d="M 14.1875 0.796875 C 11.945312 0.796875 9.929688 0.195312 8.140625 -1 C 6.347656 -2.207031 4.941406 -3.863281 3.921875 -5.96875 C 2.910156 -8.082031 2.40625 -10.445312 2.40625 -13.0625 C 2.40625 -16.800781 2.953125 -19.847656 4.046875 -22.203125 C 5.140625 -24.554688 6.539062 -26.46875 8.25 -27.9375 C 9.96875 -29.40625 11.785156 -30.660156 13.703125 -31.703125 C 15.628906 -32.742188 17.445312 -33.785156 19.15625 -34.828125 C 20.863281 -35.867188 22.265625 -37.148438 23.359375 -38.671875 C 24.460938 -40.191406 25.015625 -42.179688 25.015625 -44.640625 C 25.015625 -45.710938 24.664062 -46.769531 23.96875 -47.8125 C 23.269531 -48.851562 22.066406 -49.375 20.359375 -49.375 C 19.128906 -49.375 18.070312 -48.984375 17.1875 -48.203125 C 16.3125 -47.429688 15.875 -46.429688 15.875 -45.203125 C 15.875 -43.921875 16.234375 -42.929688 16.953125 -42.234375 C 17.671875 -41.546875 18.539062 -41.203125 19.5625 -41.203125 C 19.5625 -40.828125 19.398438 -40.238281 19.078125 -39.4375 C 18.753906 -38.632812 18.140625 -37.898438 17.234375 -37.234375 C 16.328125 -36.566406 14.988281 -36.234375 13.21875 -36.234375 C 9.96875 -36.234375 7.539062 -37.25 5.9375 -39.28125 C 4.332031 -41.3125 3.53125 -43.796875 3.53125 -46.734375 C 3.53125 -49.191406 4.144531 -51.5 5.375 -53.65625 C 6.601562 -55.820312 8.472656 -57.570312 10.984375 -58.90625 C 13.492188 -60.25 16.644531 -60.921875 20.4375 -60.921875 C 24.019531 -60.921875 26.957031 -60.304688 29.25 -59.078125 C 31.550781 -57.847656 33.34375 -56.203125 34.625 -54.140625 C 35.90625 -52.085938 36.800781 -49.789062 37.3125 -47.25 C 37.820312 -44.707031 38.078125 -42.128906 38.078125 -39.515625 C 38.078125 -39.515625 38.078125 -39.046875 38.078125 -38.109375 C 38.078125 -37.179688 38.085938 -35.96875 38.109375 -34.46875 C 38.140625 -32.96875 38.15625 -31.398438 38.15625 -29.765625 C 38.15625 -28.140625 38.15625 -26.601562 38.15625 -25.15625 C 38.15625 -23.71875 38.15625 -22.570312 38.15625 -21.71875 C 38.15625 -20.863281 38.140625 -19.660156 38.109375 -18.109375 C 38.085938 -16.566406 38.085938 -14.859375 38.109375 -12.984375 C 38.140625 -11.117188 38.222656 -9.289062 38.359375 -7.5 C 38.492188 -5.707031 38.707031 -4.128906 39 -2.765625 C 39.289062 -1.398438 39.675781 -0.476562 40.15625 0 L 25.015625 0 L 25.015625 -7.046875 C 25.015625 -7.046875 24.769531 -6.644531 24.28125 -5.84375 C 23.800781 -5.050781 23.109375 -4.128906 22.203125 -3.078125 C 21.296875 -2.035156 20.171875 -1.128906 18.828125 -0.359375 C 17.492188 0.410156 15.945312 0.796875 14.1875 0.796875 Z M 24.84375 -26.125 C 23.882812 -25.4375 22.789062 -24.648438 21.5625 -23.765625 C 20.332031 -22.878906 19.265625 -21.804688 18.359375 -20.546875 C 17.453125 -19.296875 17 -17.710938 17 -15.796875 C 17 -14.398438 17.332031 -13.207031 18 -12.21875 C 18.664062 -11.226562 19.664062 -10.734375 21 -10.734375 C 22.28125 -10.734375 23.238281 -11.304688 23.875 -12.453125 C 24.519531 -13.609375 24.84375 -15.066406 24.84375 -16.828125 Z M 24.84375 -26.125 "/></g></g></g><g clip-path="url(#fbdb93473f)"><path fill="#2479df" d="M 105.058594 37.75 C 114.332031 38.25 121.066406 41.871094 128.503906 46.550781 C 128.800781 46.734375 129.183594 46.675781 129.40625 46.425781 L 135.148438 50.050781 C 134.53125 51.964844 135.257812 54.140625 137.035156 55.261719 L 146.863281 61.472656 C 147.226562 61.703125 147.714844 61.59375 147.945312 61.226562 C 148.179688 60.863281 148.066406 60.375 147.703125 60.144531 C 145.050781 58.46875 142.398438 56.792969 139.746094 55.113281 C 139.503906 54.964844 139.433594 54.644531 139.585938 54.402344 C 139.738281 54.164062 140.058594 54.089844 140.296875 54.242188 L 148.253906 59.269531 C 148.621094 59.5 149.109375 59.390625 149.339844 59.023438 C 149.570312 58.660156 149.460938 58.171875 149.09375 57.941406 L 141.136719 52.914062 C 140.894531 52.761719 140.824219 52.441406 140.976562 52.199219 C 141.128906 51.960938 141.449219 51.886719 141.6875 52.039062 L 149.644531 57.070312 C 150.011719 57.300781 150.5 57.1875 150.730469 56.824219 C 150.960938 56.457031 150.851562 55.972656 150.484375 55.738281 L 142.527344 50.710938 C 142.289062 50.558594 142.214844 50.238281 142.367188 50 C 142.519531 49.757812 142.839844 49.6875 143.082031 49.839844 L 151.039062 54.867188 C 151.402344 55.097656 151.890625 54.988281 152.121094 54.621094 C 152.351562 54.257812 152.242188 53.769531 151.878906 53.539062 L 142.046875 47.328125 C 140.273438 46.207031 137.996094 46.480469 136.53125 47.859375 L 130.792969 44.234375 C 130.921875 43.921875 130.816406 43.542969 130.519531 43.359375 C 122.113281 38.277344 136.726562 38.476562 171.117188 56.097656 C 165.855469 72.242188 152.984375 86.679688 140.753906 71.992188 C 140.53125 71.722656 140.109375 71.738281 139.839844 71.945312 L 134.886719 67.289062 C 135.878906 65.53125 135.605469 63.300781 132.789062 60.65625 C 129.386719 57.457031 123.550781 54.859375 121.777344 56.746094 C 120 58.636719 122.957031 64.296875 126.363281 67.496094 C 129.179688 70.140625 131.417969 70.277344 133.113281 69.179688 L 138.066406 73.832031 C 137.878906 74.113281 137.929688 74.488281 138.171875 74.742188 C 142.054688 78.769531 145.863281 82.625 142.980469 83.589844 C 141.960938 83.929688 140.820312 82.28125 129.046875 78.566406 C 121.273438 76.507812 116.597656 75.566406 115.769531 74.941406 C 114.941406 74.3125 115.457031 72.433594 116.441406 72.054688 C 117.011719 71.832031 118.257812 71.65625 119.207031 71.550781 C 101.4375 64.835938 102.316406 49.425781 105.058594 37.75 Z M 105.058594 37.75 " fill-opacity="1" fill-rule="evenodd"/></g><g clip-path="url(#e210e5db7b)"><path fill="#fdba47" d="M 139.292969 39.5 C 138.996094 39.132812 138.445312 38.265625 138.046875 36.957031 C 137.648438 35.648438 137.40625 33.902344 137.742188 32.351562 C 138.078125 30.796875 138.996094 29.441406 140.339844 27.949219 C 141.6875 26.453125 143.460938 24.824219 144.664062 23.523438 C 145.871094 22.21875 146.503906 21.246094 146.683594 20.492188 C 146.859375 19.738281 146.578125 19.203125 145.886719 19.09375 C 145.191406 18.984375 144.09375 19.304688 142.269531 19.859375 C 140.449219 20.414062 137.90625 21.207031 136.007812 21.238281 C 134.105469 21.265625 132.851562 20.53125 132.183594 19.351562 C 131.515625 18.167969 131.441406 16.542969 131.699219 15.054688 C 131.960938 13.566406 132.558594 12.214844 133.566406 10.945312 C 134.578125 9.679688 136.003906 8.492188 136.667969 8.078125 C 137.332031 7.664062 137.238281 8.019531 137.066406 8.949219 C 136.894531 9.878906 136.640625 11.382812 136.722656 12.542969 C 136.808594 13.703125 137.222656 14.519531 138.035156 14.882812 C 138.84375 15.246094 140.046875 15.152344 141.851562 14.523438 C 143.652344 13.898438 146.054688 12.738281 148.164062 11.921875 C 150.277344 11.109375 152.097656 10.640625 153.535156 10.773438 C 154.96875 10.90625 156.023438 11.636719 156.6875 12.898438 C 157.351562 14.160156 157.628906 15.949219 157.488281 17.828125 C 157.347656 19.710938 156.792969 21.683594 155.800781 23.242188 C 154.808594 24.800781 153.382812 25.941406 151.402344 27.085938 C 149.421875 28.226562 146.886719 29.367188 145.179688 30.453125 C 143.472656 31.542969 142.59375 32.574219 141.8125 34.089844 C 141.027344 35.605469 140.339844 37.601562 139.980469 38.667969 C 139.621094 39.734375 139.585938 39.867188 139.292969 39.5 Z M 139.292969 39.5 " fill-opacity="1" fill-rule="evenodd"/></g><path fill="#fdba47" d="M 142.632812 40.929688 C 142.699219 40.683594 143.0625 40.238281 143.878906 39.703125 C 144.699219 39.167969 145.96875 38.546875 147.039062 37.75 C 148.109375 36.953125 148.976562 35.976562 149.863281 35.242188 C 150.746094 34.507812 151.648438 34.011719 152.402344 34.085938 C 153.160156 34.160156 153.769531 34.808594 153.921875 35.605469 C 154.074219 36.402344 153.773438 37.355469 152.996094 38.1875 C 152.222656 39.015625 150.96875 39.722656 149.582031 40.207031 C 148.191406 40.691406 146.664062 40.949219 145.550781 41.089844 C 144.4375 41.226562 143.738281 41.242188 143.273438 41.230469 C 142.804688 41.214844 142.570312 41.171875 142.632812 40.929688 Z M 142.632812 40.929688 " fill-opacity="1" fill-rule="evenodd"/><path fill="#fdba47" d="M 134.582031 38.441406 C 134.664062 38.164062 134.578125 37.507812 134.097656 36.496094 C 133.621094 35.480469 132.753906 34.109375 132.1875 32.683594 C 131.621094 31.261719 131.359375 29.785156 130.9375 28.535156 C 130.515625 27.285156 129.933594 26.257812 129.148438 25.878906 C 128.367188 25.496094 127.382812 25.761719 126.75 26.449219 C 126.121094 27.136719 125.84375 28.246094 126.101562 29.527344 C 126.363281 30.804688 127.160156 32.25 128.226562 33.558594 C 129.292969 34.867188 130.628906 36.039062 131.632812 36.84375 C 132.636719 37.648438 133.3125 38.082031 133.773438 38.351562 C 134.238281 38.621094 134.496094 38.71875 134.582031 38.441406 Z M 134.582031 38.441406 " fill-opacity="1" fill-rule="evenodd"/><path stroke-linecap="round" transform="matrix(0.748005, 0.0000272644, -0.0000272644, 0.748005, 171.838222, 70.072257)" fill="none" stroke-linejoin="miter" d="M 5.000017 5.000107 L 62.705577 4.998004 " stroke="#2d60ff" stroke-width="10" stroke-opacity="1" stroke-miterlimit="4"/><path stroke-linecap="round" transform="matrix(0.748005, 0.000000000000000122, -0.000000000000000122, 0.748005, 43.034638, 159.531818)" fill="none" stroke-linejoin="miter" d="M 4.99836 5.00213 L 344.42194 5.00213 " stroke="#2d60ff" stroke-width="10" stroke-opacity="1" stroke-miterlimit="4"/><g fill="#fdba47" fill-opacity="1"><g transform="translate(223.763246, 152.309964)"><g><path d="M 4.015625 -55.625 C 4.015625 -59.15625 4.09375 -62.109375 4.25 -64.484375 C 4.40625 -66.859375 4.722656 -68.925781 5.203125 -70.6875 C 5.691406 -72.457031 6.441406 -74.171875 7.453125 -75.828125 C 8.953125 -78.285156 11.007812 -80.316406 13.625 -81.921875 C 16.238281 -83.523438 19.5 -84.328125 23.40625 -84.328125 C 27.363281 -84.328125 30.648438 -83.523438 33.265625 -81.921875 C 35.878906 -80.316406 37.9375 -78.285156 39.4375 -75.828125 C 40.445312 -74.171875 41.207031 -72.457031 41.71875 -70.6875 C 42.226562 -68.925781 42.5625 -66.859375 42.71875 -64.484375 C 42.882812 -62.109375 42.96875 -59.15625 42.96875 -55.625 L 42.96875 -54.109375 L 29.5 -54.109375 L 29.5 -59.796875 C 29.5 -61.078125 29.441406 -62.4375 29.328125 -63.875 C 29.222656 -65.320312 28.984375 -66.671875 28.609375 -67.921875 C 28.242188 -69.179688 27.644531 -70.195312 26.8125 -70.96875 C 25.976562 -71.75 24.84375 -72.140625 23.40625 -72.140625 C 21.957031 -72.140625 20.832031 -71.75 20.03125 -70.96875 C 19.238281 -70.195312 18.65625 -69.179688 18.28125 -67.921875 C 17.90625 -66.671875 17.675781 -65.320312 17.59375 -63.875 C 17.507812 -62.4375 17.46875 -61.078125 17.46875 -59.796875 L 17.46875 -23.71875 C 17.46875 -22.4375 17.507812 -21.085938 17.59375 -19.671875 C 17.675781 -18.253906 17.90625 -16.929688 18.28125 -15.703125 C 18.65625 -14.472656 19.238281 -13.472656 20.03125 -12.703125 C 20.832031 -11.929688 21.957031 -11.546875 23.40625 -11.546875 C 25.382812 -11.546875 26.785156 -12.195312 27.609375 -13.5 C 28.441406 -14.8125 28.960938 -16.414062 29.171875 -18.3125 C 29.390625 -20.207031 29.5 -22.007812 29.5 -23.71875 L 29.5 -33.578125 L 21.875 -33.578125 L 21.875 -45.125 L 42.96875 -45.125 L 42.96875 -27.890625 C 42.96875 -24.367188 42.882812 -21.414062 42.71875 -19.03125 C 42.5625 -16.65625 42.226562 -14.597656 41.71875 -12.859375 C 41.207031 -11.128906 40.445312 -9.4375 39.4375 -7.78125 C 37.9375 -5.320312 35.878906 -3.273438 33.265625 -1.640625 C 30.648438 -0.015625 27.363281 0.796875 23.40625 0.796875 C 19.5 0.796875 16.238281 -0.015625 13.625 -1.640625 C 11.007812 -3.273438 8.953125 -5.320312 7.453125 -7.78125 C 6.492188 -9.4375 5.757812 -11.128906 5.25 -12.859375 C 4.738281 -14.597656 4.40625 -16.65625 4.25 -19.03125 C 4.09375 -21.414062 4.015625 -24.367188 4.015625 -27.890625 Z M 4.015625 -55.625 "/></g></g></g><g fill="#fdba47" fill-opacity="1"><g transform="translate(270.730482, 152.309964)"><g><path d="M 2.8125 -17.234375 L 2.8125 -42.890625 C 2.8125 -44.804688 3.035156 -46.804688 3.484375 -48.890625 C 3.941406 -50.972656 4.785156 -52.9375 6.015625 -54.78125 C 7.242188 -56.625 9.003906 -58.109375 11.296875 -59.234375 C 13.597656 -60.359375 16.59375 -60.921875 20.28125 -60.921875 C 24.070312 -60.921875 27.101562 -60.289062 29.375 -59.03125 C 31.644531 -57.78125 33.367188 -56.164062 34.546875 -54.1875 C 35.722656 -52.207031 36.507812 -50.109375 36.90625 -47.890625 C 37.3125 -45.671875 37.515625 -43.601562 37.515625 -41.6875 L 37.515625 -17.234375 C 37.515625 -15.578125 37.3125 -13.71875 36.90625 -11.65625 C 36.507812 -9.601562 35.722656 -7.628906 34.546875 -5.734375 C 33.367188 -3.835938 31.644531 -2.273438 29.375 -1.046875 C 27.101562 0.179688 24.070312 0.796875 20.28125 0.796875 C 16.59375 0.796875 13.597656 0.238281 11.296875 -0.875 C 9.003906 -2 7.242188 -3.484375 6.015625 -5.328125 C 4.785156 -7.171875 3.941406 -9.132812 3.484375 -11.21875 C 3.035156 -13.300781 2.8125 -15.304688 2.8125 -17.234375 Z M 16.109375 -44.09375 C 16.109375 -39.382812 16.109375 -34.703125 16.109375 -30.046875 C 16.109375 -25.398438 16.109375 -20.726562 16.109375 -16.03125 C 16.210938 -14.15625 16.648438 -12.800781 17.421875 -11.96875 C 18.203125 -11.144531 19.101562 -10.734375 20.125 -10.734375 C 21.132812 -10.734375 22.039062 -11.144531 22.84375 -11.96875 C 23.644531 -12.800781 24.070312 -14.15625 24.125 -16.03125 C 24.125 -20.726562 24.125 -25.398438 24.125 -30.046875 C 24.125 -34.703125 24.125 -39.382812 24.125 -44.09375 C 24.070312 -45.957031 23.644531 -47.300781 22.84375 -48.125 C 22.039062 -48.957031 21.132812 -49.375 20.125 -49.375 C 19.101562 -49.375 18.203125 -48.957031 17.421875 -48.125 C 16.648438 -47.300781 16.210938 -45.957031 16.109375 -44.09375 Z M 16.109375 -44.09375 "/></g></g></g><g fill="#2d60ff" fill-opacity="1"><g transform="translate(311.549918, 163.417267)"><g><path d="M 4.234375 -99.25 L 22.28125 -99.25 L 17.125 -22.640625 L 9.390625 -22.640625 Z M 3.6875 -8.5625 C 3.6875 -11.195312 4.601562 -13.4375 6.4375 -15.28125 C 8.28125 -17.125 10.523438 -18.046875 13.171875 -18.046875 C 15.742188 -18.046875 17.953125 -17.125 19.796875 -15.28125 C 21.640625 -13.4375 22.5625 -11.195312 22.5625 -8.5625 C 22.5625 -5.925781 21.640625 -3.6875 19.796875 -1.84375 C 17.953125 0 15.742188 0.921875 13.171875 0.921875 C 10.523438 0.921875 8.28125 0 6.4375 -1.84375 C 4.601562 -3.6875 3.6875 -5.925781 3.6875 -8.5625 Z M 3.6875 -8.5625 "/></g></g></g></svg>